<svg id="Layer_1" data-name="Layer 1" xmlns="http://www.w3.org/2000/svg" viewBox="0 0 283.46 91.43"><defs><style>.cls-1{fill:#d2aa4f;}</style></defs><path class="cls-1" d="M35.4,36.26c1.77-5.85,3.65-11.66,2.27-17.83-.8-3.6,1.93-5.55,4.07-6.19,2.51-.74,4.4,1.72,5.49,4.32,2.18,5.22.71,10.92,2.39,16.16.88,2.74.68,3.21,1.46,7.34,1,4.68.93,5.1,1.88,7.07,2.4,5,2.56,11.5,9.19,13.75.86.3.54,1.11.14,1.57a4.41,4.41,0,0,1-5.19,1.48c-1.75-.73-2.55-2.7-3.39-4.27a42.25,42.25,0,0,1-4.66-13.21c-.45-2.85-1.41-4-4.48-3.92-8.57.18-8.57,0-11.91,7.82-3.72,8.69-7.4,17.39-11.22,26-.56,1.26-.93,3.82-3,2.88-1.72-.78-1.54-3.16-.77-4.8,2-4.19,3.3-8.61,6.08-12.54,3.81-5.39,5.88-10.67,8.58-17.55M43.62,22.82c-2.41,5.78-4.59,11-6.75,16.28-.28.68-1.06,2.19,0,2.09a50.82,50.82,0,0,1,9-.49c1.52.11,1-2.73.75-4.2C45.79,32.13,44.73,27.8,43.62,22.82Z"/><path class="cls-1" d="M111.94,47c1.37-.61,1.45-1.69,2-2.44,2.08-2.87,4.34-2.58,5.76.64,1.87,4.26-1.83,8.85.77,13.09a2.26,2.26,0,0,1-1,.83,2.59,2.59,0,0,1-2.94-1.23c-1.34-2-1.14-4.29-.86-6.56.16-1.32,1.44-3.3-.4-3.75s-2.56,1.8-2.83,3.25c-.57,3.1-2.31,4.58-5,6.39-4.48,3.08-6,1.54-7.19-2.59a11.73,11.73,0,0,0-1-1.83C98,53.91,97,54.92,95.86,55.74c-2.51,1.76-4.73.67-6.53-1.13C87.68,53,87.55,51,89,48.94a11,11,0,0,1,12.46-4.23c1.13.39,2.4.89,1.72,2.8-.84,2.35-.09,4.77.52,7.11.28,1.09.51,2.22,2.12,2s1.73-1.18,1.74-2.41a55.49,55.49,0,0,1,.27-7.19c.24-1.66.45-4.37,2.11-4.46C112.35,42.41,111.28,45.23,111.94,47Zm-13.31-.38c-3.83.32-5.87,2-6.85,5.05a1.83,1.83,0,0,0,.45,2.18c.76.55,1.52.12,2.13-.48A14.25,14.25,0,0,0,98.63,46.65Z"/><path class="cls-1" d="M166,48.41c-.51,2.45-1.83,3.61-3,4.86a67,67,0,0,1-7.24,6.88c-4.8,3.76-10,7.86-16.57,8.7-2.75.35-4.14-.93-5.05-3.43-3.16-8.65,5.39-18.21,16.75-17.63-2.42,1.54-4.31,2.69-6.13,3.93a35.42,35.42,0,0,0-4.65,3.48c-2.46,2.36-4.6,5.87-2.73,8.55,1.56,2.23,5-.16,7.25-1.45,7.22-4.18,15.23-7.39,19.87-14.94C164.62,48,164.54,49.08,166,48.41Z"/><path class="cls-1" d="M189,56.29c.35-1.56.64-3.29.93-4.64,1.59-7.26,3.87-6.71,6.18-9.69.85-1.1,3.43-.34,4.21,1.81.43,1.18-.74,2.58.74,3.79,2-.75,2.9-2.66,3.95-4.4,2-3.29,3.71-2.45,5.21.38a8.1,8.1,0,0,1,.47,6.59c-.93,2.7-2.44,5.25.43,7.7.77.67,0,1-.4,1.44-.67.7-1,.22-1.59-.16-1.68-1.17-1.89-2.94-1.88-4.71,0-2.4.2-4.8.34-7.58-2.24.84-3.06,2.69-4.36,4-1.54,1.51-2.12,4.49-4.95,4s-2.21-3.54-3-5.9c-2.74,2-1.83,5.15-3,7.39-.64,1.22-.64,4.32-3.23,1.44Z"/><path class="cls-1" d="M141,29.78c-.8.6-.84.69-1.89,1.54s-2.39,1.54-2.09,3c.34,1.63,1.94,1.47,3.18,1.5,6.68.14,13.34.52,19.8,2.34,5.37,1.52,7.27,5.13,5.77,10.46-1.43.67-1.06-.52-1.22-1.16.49-3-1.32-4.19-3.91-5-6.9-2.23-14-2.39-21.17-2.54a16.1,16.1,0,0,1-4.83-.41c-2.21-.75-4-2.73-2.21-4.8a32.92,32.92,0,0,1,3.45-3.36,63.71,63.71,0,0,1,9.62-6.74s13.88-7,15.7-2.32S155,30.38,155,30.38c1.87-5.24,0-6.28,0-6.28-3.83-2-11.87,4.26-11.87,4.26"/><path class="cls-1" d="M256.19,52c-.08-5.48,4.13-11,8.19-12.36,2-.67,3.16.25,4.19,1.55a4.68,4.68,0,0,1,.05,6.24,10.07,10.07,0,0,1-5.46,3.86c-1.17.25-2.9-.17-2.38,2a3,3,0,0,0,3.13,2.55c2.08-.18,4.23-.67,5.72-2.38.95-1.09,2.35-2,3.29-.83s-.68,2.32-1.51,3c-2.81,2.41-5.94,3.85-9.79,2.3A8.64,8.64,0,0,1,256.19,52Zm4.67-2.27c2.19-2.35,5.61-2.9,5.61-6.68,0-.69-.59-1.3-1.27-1C262.26,43.36,260,45.2,260.86,49.69Z"/><path class="cls-1" d="M189,56.29l0,1.43c-5.14,2.65-7.63.16-8.72-5.29-3.22,3.31-6.34,6.26-10.1,2.29-3.53-3.72,0-6.56,2.19-9,2-2.11,4.65-2.44,6.64.53-2.9.84-5.41,2.13-6.45,5.23-.28.83-.39,1.58.33,2.2a1.44,1.44,0,0,0,2.14-.25c1.89-2.1,4.52-3.84,3.88-7.26,1.27-.25,1.57-2.58,3.59-1.47,1.68.93,1.54,2.08,1.32,3.62a20.06,20.06,0,0,0,.17,4.3C184.31,55.74,185.6,57.47,189,56.29Z"/><path class="cls-1" d="M245,57.57c-3.56,1.64-4.42-1.59-6.29-2.64-2,.57-2.31,4.28-5.36,2.8-2.87-1.4-3.06-3.83-2.6-6.59.38-2.21-1.17-6.24,1.48-6.18,3.34.08,1.4,4,1.69,6.33.14,1-.46,2.51,1.18,2.71,1.3.15,2-1,2.38-2.07a16.32,16.32,0,0,0,.37-7.19c-.13-1.24-.92-2.88,1.06-3,1.56-.1,2.59,1.16,2.67,2.84a39.36,39.36,0,0,1,.1,4.34C241.54,52.18,242.11,55.17,245,57.57Z"/><path class="cls-1" d="M227.27,51c-.08,3.59-3.13,6.2-7.25,6.2-3.17,0-5.8-3.63-5.79-8,0-2.46,4.1-6.61,6.67-6.76C223.87,42.28,227.36,47,227.27,51Zm-8,3.72c3.55-.37,4.81-2.67,5.32-5.52.18-1-.07-1.78-1.57-1.51-3,.52-5.15,1.85-5.61,5C217.22,54.11,218.3,54.58,219.29,54.72Z"/><path class="cls-1" d="M69.27,58.8c-3.55-4.56-2.65-10.76-6-15.71,3.29-.32,3.22,2.32,4.69,3.14,2.32-5.64,5-7.47,8.27-5.63.64.36,1.53,1.13,1.49,1.65-.14,1.76-1.42.29-2,.53a8.1,8.1,0,0,0-5.41,7.81c0,2.55.26,5.09.4,7.64Z"/><path class="cls-1" d="M247.37,54.67c.33-2.76,1.28-6.87.47-11.08-.22-1.17.42-2.08,1.5-2a3.24,3.24,0,0,1,3,3.28c-.61,4.28-1.68,8.38.68,12.57.67,1.2-1,2.38-2.43,2.25C248.53,59.52,246.8,58.64,247.37,54.67Z"/><path class="cls-1" d="M79.33,56.26a44.53,44.53,0,0,0,1-11c0-1.3-1.26-3.26,1-3.58a3,3,0,0,1,3.31,3.37c-.7,4.28-1.45,8.36.47,12.61.62,1.35-1.22,2.27-2.57,2C80.57,59.33,78.66,58.54,79.33,56.26Z"/><path class="cls-1" d="M249.76,32.42c1.39.9,3.74.79,4,2.95.19,1.51-1.14,2.39-2.54,2.3a3.56,3.56,0,0,1-3.59-3.23C247.44,32.94,248.43,32.52,249.76,32.42Z"/><path class="cls-1" d="M86,35.71a2.39,2.39,0,0,1-2.87,1.91c-1.8-.38-3.24-1.42-3.21-3.54,0-1.56,1.24-1.9,2.32-1.44C83.75,33.27,85.87,33.38,86,35.71Z"/><path class="cls-1" d="M148.78,23.24c-.14.42-.28.84-.43,1.26-.21-.2-.39-.39-.58-.59Z"/><path class="cls-1" d="M164.44,45.29s.55,1.48-.92,3.48S165,50.86,165,50.86s1.28-1.28,1.28-5.46S164.44,45.29,164.44,45.29Z"/><path class="cls-1" d="M55.89,42.4s-22.16-.27-35.06,2.44a10.78,10.78,0,0,0-5.15,2.59c-.91.84-2.45,1.41-4.77-.26-4.19-3,11.88-4.86,11.88-4.86s21.37-2.25,32.87-.93Z"/></svg>